<?xml version="1.0" encoding="UTF-8" standalone="no"?>
<svg xmlns:dc="http://purl.org/dc/elements/1.1/" xmlns:cc="http://creativecommons.org/ns#"
    xmlns:rdf="http://www.w3.org/1999/02/22-rdf-syntax-ns#" xmlns="http://www.w3.org/2000/svg"
    xmlns:sodipodi="http://sodipodi.sourceforge.net/DTD/sodipodi-0.dtd"
    xmlns:inkscape="http://www.inkscape.org/namespaces/inkscape" sodipodi:docname="bacterium.svg"
    inkscape:version="1.0beta2 (2b71d25, 2019-12-03)" id="svg2136" version="1.1"
    viewBox="0 0 24 24.000001" height="24mm" width="24mm">
    <defs id="defs2130">
        <inkscape:path-effect fuse_tolerance="0" hide_knot="false" vertical_pattern="false"
            prop_units="false" tang_offset="0" normal_offset="0.7" spacing="1.2" scale_y_rel="false"
            prop_scale="1" copytype="repeated" pattern="m 18.651846,0.13624477 v 1.32291673 0"
            lpeversion="1" is_visible="true" id="path-effect2768" effect="skeletal" />
    </defs>
    <sodipodi:namedview inkscape:window-maximized="0" inkscape:window-y="23" inkscape:window-x="0"
        inkscape:window-height="755" inkscape:window-width="1280" width="24mm" units="mm"
        showgrid="false" inkscape:document-rotation="0" inkscape:current-layer="layer1"
        inkscape:document-units="px" inkscape:cy="46.510366" inkscape:cx="-0.061517533"
        inkscape:zoom="6.0302951" inkscape:pageshadow="2" inkscape:pageopacity="0.0"
        borderopacity="1.0" bordercolor="#666666" pagecolor="#ffffff" id="base">
        <inkscape:grid id="grid2150" type="xygrid" />
    </sodipodi:namedview>
    <metadata id="metadata2133">
        <rdf:RDF>
            <cc:Work rdf:about="">
                <dc:format>image/svg+xml</dc:format>
                <dc:type rdf:resource="http://purl.org/dc/dcmitype/StillImage" />
                <dc:title />
            </cc:Work>
        </rdf:RDF>
    </metadata>
    <g id="layer1" inkscape:groupmode="layer" inkscape:label="Layer 1">
        <path sodipodi:nodetypes="csssc" inkscape:connector-curvature="0"
            d="m 17.38649,14.294316 c 0,1.453497 -0.313513,2.384906 -1.763791,2.384906 -1.450275,-2e-6 -3.488125,-0.931411 -3.488125,-2.384906 0,-1.453496 1.17568,-2.631788 2.625957,-2.631788 1.450277,0 2.625959,1.178292 2.625959,2.631788"
            style="fill:#2159c1;fill-opacity:0.5;stroke:#196d50;stroke-width:0.264583;stroke-linecap:round;stroke-miterlimit:4;stroke-dasharray:none;stroke-opacity:1"
            id="circle2803" />
        <path sodipodi:nodetypes="csssc" inkscape:connector-curvature="0"
            d="m 16.331646,19.327478 c 0,0.730627 -1.398935,1.447016 -2.129562,1.447016 -0.730627,0 -1.322917,-0.59229 -1.322917,-1.322917 10e-7,-0.730626 1.398935,-1.447015 2.129562,-1.447015 0.730627,0 1.322917,0.592289 1.322917,1.322916"
            style="fill:#b3dc3d;fill-opacity:0.5;stroke:#196d50;stroke-width:0.264583;stroke-linecap:round;stroke-miterlimit:4;stroke-dasharray:none;stroke-opacity:1"
            id="circle2805" />
        <path sodipodi:nodetypes="csssc" inkscape:connector-curvature="0"
            d="m 11.90625,17.197917 c 0,0.730627 -0.282042,1.695215 -1.012669,1.695214 -0.730626,0 -1.6331639,-0.964587 -1.6331639,-1.695214 0,-0.730626 0.59229,-1.322916 1.3229159,-1.322916 0.730627,-10e-7 1.322917,0.592289 1.322917,1.322916"
            style="fill:#b3dc3d;fill-opacity:0.5;stroke:#196d50;stroke-width:0.264583;stroke-linecap:round;stroke-miterlimit:4;stroke-dasharray:none;stroke-opacity:1"
            id="circle2817" />
        <path id="path2834"
            style="fill:#b3dc3d;fill-opacity:0.5;stroke:#196d50;stroke-width:0.264583;stroke-linecap:round;stroke-miterlimit:4;stroke-dasharray:none;stroke-opacity:1"
            d="m 9.9318442,4.3702772 c 0,0.730627 -0.157943,1.198817 -0.88857,1.198817 -0.730626,-1e-6 -1.7572631,-0.468191 -1.7572631,-1.198817 0,-0.730627 0.592289,-1.322917 1.3229161,-1.322917 0.730627,0 1.322917,0.59229 1.322917,1.322917"
            inkscape:connector-curvature="0" sodipodi:nodetypes="csssc" />
        <path inkscape:connector-curvature="0"
            d="M 7.5287393,1.7368449 C 5.9834792,1.7643269 4.6131704,2.3016003 3.7258707,3.683496 c -2.5812351,4.0200606 2.6605449,6.694301 3.3651692,8.89248 0.7046245,2.198179 -0.4892305,5.962743 1.4665772,7.791773 1.9558069,1.829029 5.3944529,2.502515 8.0248329,1.264522 2.630379,-1.237993 4.391116,-4.798124 4.400248,-7.954553 0.0091,-3.15643 -1.655906,-6.8170307 -4.831746,-8.8521729 C 14.066807,3.4899832 10.478781,1.6843791 7.5287393,1.7368449 Z m 1.0800373,1.3105142 c 0.7306271,0 1.3229167,0.5922897 1.3229167,1.3229167 0,0.730627 -0.1576917,1.1988932 -0.8883176,1.1988932 C 8.3127494,5.5691679 7.28586,5.1009018 7.28586,4.3702758 c 0,-0.730627 0.5922896,-1.3229167 1.3229166,-1.3229167 z m 6.1515624,8.6149779 c 1.450277,0 2.626197,1.178385 2.626197,2.631881 0,1.453497 -0.313439,2.384867 -1.763717,2.384867 -1.450275,-1e-6 -3.488159,-0.931372 -3.488159,-2.384867 0,-1.453496 1.175402,-2.631881 2.625679,-2.631881 z M 10.583333,15.875 c 0.730627,-10e-7 1.322917,0.592289 1.322917,1.322916 0,0.730627 -0.282231,1.694988 -1.012858,1.694987 -0.730626,0 -1.6329754,-0.96436 -1.6329754,-1.694987 0,-0.730626 0.5922906,-1.322916 1.3229164,-1.322916 z m 4.42557,2.129586 c 0.730627,0 1.322916,0.592289 1.322916,1.322916 0,0.730627 -1.398958,1.44694 -2.129585,1.44694 -0.730627,0 -1.322917,-0.592289 -1.322917,-1.322916 10e-7,-0.730626 1.398959,-1.44694 2.129586,-1.44694 z"
            style="fill:#2caa9e;fill-opacity:0.5;stroke:#196d50;stroke-width:0.52916666;stroke-linecap:butt;stroke-linejoin:miter;stroke-miterlimit:4;stroke-dasharray:none;stroke-opacity:1"
            id="path2142" />
        <path transform="translate(-18.516954,-0.00395327)"
            style="fill:none;fill-opacity:1;stroke:#196d50;stroke-width:0.52916666;stroke-linecap:round;stroke-linejoin:miter;stroke-opacity:1;stroke-miterlimit:4;stroke-dasharray:none"
            d="M 22.214259,3.6625107 21.101061,2.9477389 m 0.593417,1.8077509 -1.260832,-0.405139 m 1.070014,1.5915469 -1.312778,0.0044 m 1.523935,1.1784739 -1.243884,0.4291517 m 1.768645,0.656646 -1.132502,0.6964625 m 1.834982,0.2847886 -1.029766,0.8288207 m 1.813449,0.08216 -0.984833,0.884319 m 1.785868,0.01022 -0.997355,0.881134 m 1.738003,0.0616 -1.116729,0.697928 m 1.543842,0.394517 -1.281762,0.280776 m 1.424757,0.895035 -1.320688,0.06 m 1.326713,1.143624 -1.334221,-0.02286 m 1.328361,1.23125 -1.323122,0.03194 m 1.408709,1.188653 -1.339108,0.17643 m 1.609928,1.008222 -1.236687,0.43275 m 1.79418,0.608554 -1.01586,0.8009 m 1.898447,0.01249 -0.786649,1.061226 m 1.812693,-0.430258 -0.595774,1.182721 m 1.715659,-0.728597 -0.399077,1.267758 m 1.579731,-0.995757 -0.196557,1.316335 m 1.404909,-1.231739 0.01178,1.328453 m 1.191194,-1.436543 0.225947,1.304112 m 0.938585,-1.61017 0.445933,1.243312 m 0.642548,-1.755594 0.680483,1.12533 m 0.278441,-1.844654 0.887115,0.975876 m -0.0648,-1.858624 1.04088,0.82752 m -0.35418,-1.825738 1.14178,0.680261 m -0.586813,-1.750312 1.208312,0.541742 m -0.778993,-1.667753 1.262411,0.399597 m -0.967342,-1.567252 1.29945,0.246834 m -1.14826,-1.440659 1.319431,0.08346 m -1.320243,-1.286938 1.319064,-0.083 m -1.466244,-1.110647 1.300207,-0.238887 m -1.585412,-0.930514 1.266155,-0.386347 M 38.674815,9.5398209 39.89172,9.0144422 M 38.136499,8.4602583 39.288958,7.8042779 M 37.483098,7.4462921 38.555913,6.6681392 M 36.722256,6.5117069 37.700232,5.619811 m -1.838611,0.050476 0.86794,-0.9972095 m -1.820723,0.2627403 0.742707,-1.0940937 m -1.76196,0.4547064 0.678389,-1.138912 M 32.840655,3.7041017 33.46449,2.533894 m -1.701131,0.6321981 0.558669,-1.2007737 m -1.66367,0.72671 0.48289,-1.2306101 M 29.526315,2.2915371 29.922814,1.03182 M 28.367891,1.9742443 28.667387,0.68614991 M 27.180264,1.7583766 27.343407,0.4402325 M 25.976132,1.6973347 25.936576,0.37881753 M 24.78402,1.8510309 24.473612,0.56520373 M 23.663992,2.296946 23.008862,1.1504361 M 22.712743,3.0345208 21.765057,2.1174753"
            id="path2144" inkscape:connector-curvature="0" sodipodi:nodetypes="zzzzzzz" />
        <path sodipodi:nodetypes="csssc" inkscape:connector-curvature="0"
            d="M 5.8208333,6.8791666 C 5.4353199,7.0131208 5.1593231,7.015621 5.0253691,6.6301079 4.8914157,6.2445948 4.9502297,5.6170539 5.3357426,5.4830999 5.7212559,5.3491458 6.1423673,5.5530742 6.2763215,5.9385876 6.4102756,6.324101 6.2063466,6.7452125 5.8208333,6.8791666"
            style="fill:#196d50;fill-opacity:1;stroke:none;stroke-width:0.264583;stroke-linecap:round;stroke-miterlimit:4;stroke-dasharray:none;stroke-opacity:1"
            id="path2836" />
        <path id="path2838"
            style="fill:#196d50;fill-opacity:1;stroke:none;stroke-width:0.264583;stroke-linecap:round;stroke-miterlimit:4;stroke-dasharray:none;stroke-opacity:1"
            d="M 5.9720395,8.8474934 C 5.645628,8.6025039 5.4894223,8.3749511 5.7344116,8.04854 5.9794014,7.7221293 6.5328135,7.4204644 6.8592245,7.6654536 7.1856358,7.9104431 7.2516417,8.3736545 7.0066522,8.700066 6.7616626,9.0264774 6.2984508,9.0924829 5.9720395,8.8474934"
            inkscape:connector-curvature="0" sodipodi:nodetypes="csssc" />
        <path sodipodi:nodetypes="csssc" inkscape:connector-curvature="0"
            d="M 7.3343257,7.2759659 C 7.2193771,6.9469041 7.2303717,6.7151587 7.6219721,6.6185677 8.0135725,6.521977 8.6374881,6.5971169 8.7524365,6.9261783 8.8673851,7.25524 8.6431149,7.6002997 8.2515141,7.6968911 7.8599134,7.7934822 7.4492742,7.6050276 7.3343257,7.2759659"
            style="fill:#196d50;fill-opacity:1;stroke:none;stroke-width:0.264583;stroke-linecap:round;stroke-miterlimit:4;stroke-dasharray:none;stroke-opacity:1"
            id="path2840" />
        <path id="path2842"
            style="fill:#196d50;fill-opacity:1;stroke:none;stroke-width:0.264583;stroke-linecap:round;stroke-miterlimit:4;stroke-dasharray:none;stroke-opacity:1"
            d="m 8.6373671,14.16347 c -0.1149486,-0.329062 -0.103954,-0.560807 0.2876464,-0.657398 0.3916004,-0.09659 1.015516,-0.02145 1.1304645,0.307611 0.114948,0.329061 -0.1093217,0.674121 -0.5009225,0.770712 -0.3916007,0.09659 -0.8022399,-0.09186 -0.9171884,-0.420925"
            inkscape:connector-curvature="0" sodipodi:nodetypes="csssc" />
        <path sodipodi:nodetypes="csssc" inkscape:connector-curvature="0"
            d="m 18.437765,12.172576 c 0.280616,-0.20676 0.505322,-0.264502 0.712955,0.08129 0.207633,0.345787 0.319569,0.964162 0.03895,1.170922 -0.280615,0.206759 -0.67642,0.09406 -0.884054,-0.251732 -0.207633,-0.345788 -0.148474,-0.793715 0.132145,-1.000475"
            style="fill:#196d50;fill-opacity:1;stroke:none;stroke-width:0.264583;stroke-linecap:round;stroke-miterlimit:4;stroke-dasharray:none;stroke-opacity:1"
            id="path2844" />
    </g>
</svg>
