<?xml version="1.0" encoding="UTF-8" standalone="no"?>
<svg xmlns:dc="http://purl.org/dc/elements/1.1/" xmlns:cc="http://creativecommons.org/ns#"
    xmlns:rdf="http://www.w3.org/1999/02/22-rdf-syntax-ns#" xmlns="http://www.w3.org/2000/svg"
    xmlns:sodipodi="http://sodipodi.sourceforge.net/DTD/sodipodi-0.dtd"
    xmlns:inkscape="http://www.inkscape.org/namespaces/inkscape"
    sodipodi:docname="bretscher_hochstrasser_logo.svg" inkscape:export-ydpi="270"
    inkscape:export-xdpi="270"
    inkscape:export-filename="../app/src/main/res/drawable-xxhdpi/logo.png"
    inkscape:version="1.0 (4035a4f, 2020-05-01)" version="1.1" id="svg2" height="100" width="270">
    <defs id="defs4">
        <linearGradient id="linearGradient4036">
            <stop id="stop4038" offset="0" style="stop-color:#2a7fff;stop-opacity:1;" />
            <stop style="stop-color:#71c837;stop-opacity:1;" offset="0.5" id="stop4044" />
            <stop id="stop4040" offset="1" style="stop-color:#2a7fff;stop-opacity:0;" />
        </linearGradient>
    </defs>
    <sodipodi:namedview inkscape:document-rotation="0" inkscape:window-maximized="0"
        inkscape:window-y="23" inkscape:window-x="0" inkscape:window-height="755"
        inkscape:window-width="1271" inkscape:guide-bbox="true" showguides="true" showgrid="false"
        inkscape:current-layer="g3001" inkscape:document-units="px" inkscape:cy="68.121658"
        inkscape:cx="55.652474" inkscape:zoom="13.391952" inkscape:pageshadow="2"
        inkscape:pageopacity="1" borderopacity="1.0" bordercolor="#666666" pagecolor="#ffffff"
        id="base">
        <sodipodi:guide id="guide3033" position="-16.785714,91.964286" orientation="1,0" />
    </sodipodi:namedview>
    <metadata id="metadata7">
        <rdf:RDF>
            <cc:Work rdf:about="">
                <dc:format>image/svg+xml</dc:format>
                <dc:type rdf:resource="http://purl.org/dc/dcmitype/StillImage" />
                <dc:title></dc:title>
            </cc:Work>
        </rdf:RDF>
    </metadata>
    <g transform="translate(0,-952.3622)" id="layer1" inkscape:groupmode="layer"
        inkscape:label="Layer 1">
        <g transform="matrix(1.4771571,0,0,1.4771571,1.6911315,-502.76893)" id="g3028">
            <g transform="matrix(1.1548127,0,0,1.1548127,2.7318058,-168.10152)" id="g3001">
                <g transform="translate(0,-1.3504746)" id="g1972">
                    <path id="path1885"
                        style="font-style:normal;font-variant:normal;font-weight:normal;font-stretch:normal;font-size:15.2566px;line-height:110%;font-family:Roboto;-inkscape-font-specification:'Roboto, Normal';font-variant-ligatures:normal;font-variant-caps:normal;font-variant-numeric:normal;font-variant-east-asian:normal;text-align:start;letter-spacing:0px;word-spacing:0px;writing-mode:lr-tb;text-anchor:start;fill:#000000;fill-opacity:1;stroke:none;stroke-width:0.975945"
                        d="m 45.787705,1030.2045 v -10.6457 h 3.605277 q 1.730532,0 2.709649,0.7238 0.979117,0.7165 0.979117,2.157 0,0.7092 -0.470583,1.2722 -0.470583,0.5557 -1.237179,0.8262 1.001888,0.2047 1.571141,0.9432 0.576845,0.7384 0.576845,1.7182 0,1.4623 -0.986708,2.2373 -0.979117,0.7678 -2.664109,0.7678 z m 1.495241,-4.9938 v 3.8678 h 2.588209 q 1.017067,0 1.586322,-0.4826 0.569254,-0.4899 0.569254,-1.3819 0,-0.9359 -0.478174,-1.4696 -0.470583,-0.5337 -1.45729,-0.5337 z m 0,-1.1261 h 2.421228 q 0.834906,0 1.35862,-0.4386 0.523713,-0.4461 0.523713,-1.2357 0,-0.8627 -0.569254,-1.2868 -0.561664,-0.4314 -1.624271,-0.4314 h -2.110036 z" />
                    <path id="path1887"
                        style="font-style:normal;font-variant:normal;font-weight:normal;font-stretch:normal;font-size:15.2566px;line-height:110%;font-family:Roboto;-inkscape-font-specification:'Roboto, Normal';font-variant-ligatures:normal;font-variant-caps:normal;font-variant-numeric:normal;font-variant-east-asian:normal;text-align:start;letter-spacing:0px;word-spacing:0px;writing-mode:lr-tb;text-anchor:start;fill:#000000;fill-opacity:1;stroke:none;stroke-width:0.975945"
                        d="m 59.320774,1023.5655 -0.766596,-0.044 q -0.592025,0 -1.001887,0.2706 -0.402274,0.2705 -0.622385,0.7604 v 5.6519 h -1.495241 v -7.9112 h 1.33585 l 0.144211,1.1552 q 0.349142,-0.6141 0.857676,-0.9578 0.516124,-0.3436 1.184048,-0.3436 0.166982,0 0.318783,0.029 0.151801,0.022 0.250472,0.051 z" />
                    <path id="path1889"
                        style="font-style:normal;font-variant:normal;font-weight:normal;font-stretch:normal;font-size:15.2566px;line-height:110%;font-family:Roboto;-inkscape-font-specification:'Roboto, Normal';font-variant-ligatures:normal;font-variant-caps:normal;font-variant-numeric:normal;font-variant-east-asian:normal;text-align:start;letter-spacing:0px;word-spacing:0px;writing-mode:lr-tb;text-anchor:start;fill:#000000;fill-opacity:1;stroke:none;stroke-width:0.975945"
                        d="m 64.034198,1030.358 q -1.715352,0 -2.73242,-1.0967 -1.009477,-1.1041 -1.009477,-2.8589 v -0.3216 q 0,-1.6891 1.039838,-2.8078 1.047428,-1.1259 2.474358,-1.1259 1.662222,0 2.512307,0.9652 0.850087,0.9651 0.850087,2.5736 v 0.8993 h -5.328219 l -0.02277,0.036 q 0.02277,1.1405 0.599614,1.879 0.576844,0.7312 1.616682,0.7312 0.759005,0 1.32826,-0.2047 0.576844,-0.212 0.994297,-0.5776 l 0.584434,0.9358 q -0.440223,0.4169 -1.161278,0.6946 -0.721056,0.2779 -1.745713,0.2779 z m -0.227701,-7.0776 q -0.751416,0 -1.28272,0.6142 -0.531303,0.6069 -0.652745,1.5281 l 0.01518,0.036 h 3.787438 v -0.19 q 0,-0.8482 -0.470583,-1.4185 -0.470584,-0.5703 -1.39657,-0.5703 z" />
                    <path id="path1891"
                        style="font-style:normal;font-variant:normal;font-weight:normal;font-stretch:normal;font-size:15.2566px;line-height:110%;font-family:Roboto;-inkscape-font-specification:'Roboto, Normal';font-variant-ligatures:normal;font-variant-caps:normal;font-variant-numeric:normal;font-variant-east-asian:normal;text-align:start;letter-spacing:0px;word-spacing:0px;writing-mode:lr-tb;text-anchor:start;fill:#000000;fill-opacity:1;stroke:none;stroke-width:0.975945"
                        d="m 70.827296,1020.385 v 1.9083 h 1.555961 v 1.0675 h -1.555961 v 4.8037 q 0,0.5557 0.235292,0.7824 0.242881,0.2266 0.637565,0.2266 0.129031,0 0.280832,-0.029 0.159391,-0.029 0.280832,-0.073 l 0.197341,0.9871 q -0.166981,0.1316 -0.493353,0.212 -0.318783,0.087 -0.645156,0.087 -0.910806,0 -1.449699,-0.5264 -0.538895,-0.5338 -0.538895,-1.6671 v -4.8037 h -1.305489 v -1.0675 h 1.305489 v -1.9083 z" />
                    <path id="path1893"
                        style="font-style:normal;font-variant:normal;font-weight:normal;font-stretch:normal;font-size:15.2566px;line-height:110%;font-family:Roboto;-inkscape-font-specification:'Roboto, Normal';font-variant-ligatures:normal;font-variant-caps:normal;font-variant-numeric:normal;font-variant-east-asian:normal;text-align:start;letter-spacing:0px;word-spacing:0px;writing-mode:lr-tb;text-anchor:start;fill:#000000;fill-opacity:1;stroke:none;stroke-width:0.975945"
                        d="m 79.001787,1028.106 q 0,-0.4752 -0.379503,-0.7823 -0.371913,-0.3071 -1.41934,-0.5337 -1.495241,-0.3145 -2.254247,-0.8482 -0.751415,-0.541 -0.751415,-1.4696 0,-0.9652 0.850086,-1.6452 0.850086,-0.6799 2.216297,-0.6799 1.434519,0 2.277016,0.7092 0.850087,0.7092 0.812136,1.7255 l -0.01518,0.044 h -1.42693 q 0,-0.5191 -0.455404,-0.9286 -0.447813,-0.4167 -1.191638,-0.4167 -0.796956,0 -1.184049,0.3363 -0.387093,0.3363 -0.387093,0.8116 0,0.4679 0.341553,0.7385 0.341552,0.2705 1.388979,0.4825 1.555962,0.3217 2.314967,0.8774 0.759006,0.5484 0.759006,1.477 0,1.0528 -0.888036,1.7035 -0.880447,0.6508 -2.307378,0.6508 -1.571141,0 -2.474358,-0.7678 -0.903216,-0.7677 -0.857676,-1.7913 l 0.01518,-0.044 h 1.426931 q 0.03795,0.7677 0.592025,1.1259 0.554073,0.351 1.297899,0.351 0.796956,0 1.244769,-0.3071 0.455403,-0.3144 0.455403,-0.8189 z" />
                    <path id="path1895"
                        style="font-style:normal;font-variant:normal;font-weight:normal;font-stretch:normal;font-size:15.2566px;line-height:110%;font-family:Roboto;-inkscape-font-specification:'Roboto, Normal';font-variant-ligatures:normal;font-variant-caps:normal;font-variant-numeric:normal;font-variant-east-asian:normal;text-align:start;letter-spacing:0px;word-spacing:0px;writing-mode:lr-tb;text-anchor:start;fill:#000000;fill-opacity:1;stroke:none;stroke-width:0.975945"
                        d="m 85.703803,1029.232 q 0.743825,0 1.305489,-0.4387 0.569255,-0.446 0.569255,-1.0895 h 1.343439 l 0.01518,0.044 q 0.03795,1.0237 -0.948757,1.8207 -0.979117,0.7896 -2.284606,0.7896 -1.791253,0 -2.74001,-1.126 -0.948757,-1.126 -0.948757,-2.8296 v -0.307 q 0,-1.6891 0.948757,-2.815 0.956347,-1.1333 2.74001,-1.1333 1.442111,0 2.352917,0.8189 0.918397,0.8189 0.888037,2.0107 l -0.01518,0.044 h -1.35103 q 0,-0.7238 -0.531304,-1.2283 -0.531304,-0.5118 -1.34344,-0.5118 -1.176458,0 -1.684992,0.8188 -0.500944,0.8116 -0.500944,1.9962 v 0.307 q 0,1.2138 0.500944,2.0253 0.500943,0.8043 1.684992,0.8043 z" />
                    <path id="path1897"
                        style="font-style:normal;font-variant:normal;font-weight:normal;font-stretch:normal;font-size:15.2566px;line-height:110%;font-family:Roboto;-inkscape-font-specification:'Roboto, Normal';font-variant-ligatures:normal;font-variant-caps:normal;font-variant-numeric:normal;font-variant-east-asian:normal;text-align:start;letter-spacing:0px;word-spacing:0px;writing-mode:lr-tb;text-anchor:start;fill:#000000;fill-opacity:1;stroke:none;stroke-width:0.975945"
                        d="m 92.117403,1023.3535 q 0.425043,-0.5703 1.039837,-0.8847 0.622385,-0.3217 1.373801,-0.3217 1.313079,0 2.041724,0.7604 0.736235,0.7604 0.736235,2.3397 v 4.9573 h -1.495241 v -4.9719 q 0,-0.9798 -0.440223,-1.4477 -0.432633,-0.468 -1.297899,-0.468 -0.622384,0 -1.130918,0.2852 -0.500944,0.2779 -0.827316,0.7604 v 5.842 h -1.495241 v -11.4062 h 1.495241 z" />
                    <path id="path1899"
                        style="font-style:normal;font-variant:normal;font-weight:normal;font-stretch:normal;font-size:15.2566px;line-height:110%;font-family:Roboto;-inkscape-font-specification:'Roboto, Normal';font-variant-ligatures:normal;font-variant-caps:normal;font-variant-numeric:normal;font-variant-east-asian:normal;text-align:start;letter-spacing:0px;word-spacing:0px;writing-mode:lr-tb;text-anchor:start;fill:#000000;fill-opacity:1;stroke:none;stroke-width:0.975945"
                        d="m 102.86492,1030.358 q -1.71535,0 -2.73242,-1.0967 -1.009478,-1.1041 -1.009478,-2.8589 v -0.3216 q 0,-1.6891 1.039838,-2.8078 1.04743,-1.1259 2.47436,-1.1259 1.66222,0 2.51231,0.9652 0.85008,0.9651 0.85008,2.5736 v 0.8993 h -5.32822 l -0.0228,0.036 q 0.0228,1.1405 0.59962,1.879 0.57684,0.7312 1.61668,0.7312 0.75901,0 1.32826,-0.2047 0.57684,-0.212 0.99429,-0.5776 l 0.58444,0.9358 q -0.44022,0.4169 -1.16128,0.6946 -0.72105,0.2779 -1.74571,0.2779 z m -0.2277,-7.0776 q -0.75142,0 -1.28272,0.6142 -0.53131,0.6069 -0.65275,1.5281 l 0.0152,0.036 h 3.78744 v -0.19 q 0,-0.8482 -0.47058,-1.4185 -0.47058,-0.5703 -1.39657,-0.5703 z" />
                    <path id="path1901"
                        style="font-style:normal;font-variant:normal;font-weight:normal;font-stretch:normal;font-size:15.2566px;line-height:110%;font-family:Roboto;-inkscape-font-specification:'Roboto, Normal';font-variant-ligatures:normal;font-variant-caps:normal;font-variant-numeric:normal;font-variant-east-asian:normal;text-align:start;letter-spacing:0px;word-spacing:0px;writing-mode:lr-tb;text-anchor:start;fill:#000000;fill-opacity:1;stroke:none;stroke-width:0.975945"
                        d="m 111.57072,1023.5655 -0.76661,-0.044 q -0.59202,0 -1.00188,0.2706 -0.40228,0.2705 -0.62238,0.7604 v 5.6519 h -1.49525 v -7.9112 h 1.33586 l 0.14421,1.1552 q 0.34914,-0.6141 0.85767,-0.9578 0.51612,-0.3436 1.18405,-0.3436 0.16698,0 0.31879,0.029 0.1518,0.022 0.25046,0.051 z" />
                </g>
                <g transform="translate(0,1.1724336)" id="g1961">
                    <path id="path1903"
                        style="font-style:normal;font-variant:normal;font-weight:normal;font-stretch:normal;font-size:15.2566px;line-height:110%;font-family:Roboto;-inkscape-font-specification:'Roboto, Normal';font-variant-ligatures:normal;font-variant-caps:normal;font-variant-numeric:normal;font-variant-east-asian:normal;text-align:start;letter-spacing:0px;word-spacing:0px;writing-mode:lr-tb;text-anchor:start;fill:#000000;fill-opacity:1;stroke:none;stroke-width:0.975945"
                        d="m 54.144356,1043.9559 h -1.495241 v -4.7014 h -5.366169 v 4.7014 h -1.495241 v -10.6456 h 1.495241 v 4.811 h 5.366169 v -4.811 h 1.495241 z" />
                    <path id="path1905"
                        style="font-style:normal;font-variant:normal;font-weight:normal;font-stretch:normal;font-size:15.2566px;line-height:110%;font-family:Roboto;-inkscape-font-specification:'Roboto, Normal';font-variant-ligatures:normal;font-variant-caps:normal;font-variant-numeric:normal;font-variant-east-asian:normal;text-align:start;letter-spacing:0px;word-spacing:0px;writing-mode:lr-tb;text-anchor:start;fill:#000000;fill-opacity:1;stroke:none;stroke-width:0.975945"
                        d="m 56.239211,1039.9272 q 0,-1.7548 0.986708,-2.8881 0.986706,-1.1406 2.679289,-1.1406 1.707763,0 2.694469,1.1334 0.994297,1.1332 0.994297,2.8953 v 0.1609 q 0,1.7694 -0.986706,2.8954 -0.986708,1.1259 -2.686879,1.1259 -1.700173,0 -2.69447,-1.1259 -0.986708,-1.1333 -0.986708,-2.8954 z m 1.495241,0.1609 q 0,1.2576 0.546484,2.0764 0.554074,0.819 1.639453,0.819 1.070197,0 1.624271,-0.819 0.554074,-0.8188 0.554074,-2.0764 v -0.1609 q 0,-1.2429 -0.561664,-2.0691 -0.554074,-0.8262 -1.631862,-0.8262 -1.070198,0 -1.624272,0.8262 -0.546484,0.8262 -0.546484,2.0691 z" />
                    <path id="path1907"
                        style="font-style:normal;font-variant:normal;font-weight:normal;font-stretch:normal;font-size:15.2566px;line-height:110%;font-family:Roboto;-inkscape-font-specification:'Roboto, Normal';font-variant-ligatures:normal;font-variant-caps:normal;font-variant-numeric:normal;font-variant-east-asian:normal;text-align:start;letter-spacing:0px;word-spacing:0px;writing-mode:lr-tb;text-anchor:start;fill:#000000;fill-opacity:1;stroke:none;stroke-width:0.975945"
                        d="m 68.762802,1042.9835 q 0.743827,0 1.30549,-0.4388 0.569255,-0.4459 0.569255,-1.0894 h 1.343439 l 0.01518,0.044 q 0.03795,1.0237 -0.948757,1.8206 -0.979117,0.7896 -2.284607,0.7896 -1.791252,0 -2.740009,-1.1259 -0.948757,-1.126 -0.948757,-2.8297 v -0.3071 q 0,-1.6889 0.948757,-2.8149 0.956347,-1.1333 2.740009,-1.1333 1.442112,0 2.352918,0.8189 0.918397,0.8189 0.888036,2.0107 l -0.01518,0.044 h -1.351029 q 0,-0.7238 -0.531304,-1.2284 -0.531304,-0.5118 -1.343441,-0.5118 -1.176458,0 -1.684991,0.8189 -0.500944,0.8116 -0.500944,1.996 v 0.3071 q 0,1.2137 0.500944,2.0253 0.500944,0.8044 1.684991,0.8044 z" />
                    <path id="path1909"
                        style="font-style:normal;font-variant:normal;font-weight:normal;font-stretch:normal;font-size:15.2566px;line-height:110%;font-family:Roboto;-inkscape-font-specification:'Roboto, Normal';font-variant-ligatures:normal;font-variant-caps:normal;font-variant-numeric:normal;font-variant-east-asian:normal;text-align:start;letter-spacing:0px;word-spacing:0px;writing-mode:lr-tb;text-anchor:start;fill:#000000;fill-opacity:1;stroke:none;stroke-width:0.975945"
                        d="m 75.176398,1037.105 q 0.425044,-0.5704 1.039838,-0.8847 0.622384,-0.3218 1.3738,-0.3218 1.31308,0 2.041725,0.7605 0.736235,0.7603 0.736235,2.3396 v 4.9573 h -1.495241 v -4.9719 q 0,-0.9797 -0.440223,-1.4477 -0.432633,-0.4679 -1.297899,-0.4679 -0.622385,0 -1.130918,0.2852 -0.500944,0.2777 -0.827317,0.7603 v 5.842 h -1.495241 v -11.4061 h 1.495241 z" />
                    <path id="path1911"
                        style="font-style:normal;font-variant:normal;font-weight:normal;font-stretch:normal;font-size:15.2566px;line-height:110%;font-family:Roboto;-inkscape-font-specification:'Roboto, Normal';font-variant-ligatures:normal;font-variant-caps:normal;font-variant-numeric:normal;font-variant-east-asian:normal;text-align:start;letter-spacing:0px;word-spacing:0px;writing-mode:lr-tb;text-anchor:start;fill:#000000;fill-opacity:1;stroke:none;stroke-width:0.975945"
                        d="m 87.290128,1041.8575 q 0,-0.4753 -0.379502,-0.7823 -0.371912,-0.3071 -1.41934,-0.5339 -1.495241,-0.3143 -2.254247,-0.8481 -0.751415,-0.541 -0.751415,-1.4696 0,-0.9651 0.850086,-1.6451 0.850086,-0.68 2.216296,-0.68 1.434521,0 2.277017,0.7093 0.850086,0.7092 0.812136,1.7255 l -0.01518,0.044 h -1.426931 q 0,-0.5191 -0.455403,-0.9286 -0.447814,-0.4168 -1.191639,-0.4168 -0.796956,0 -1.184049,0.3364 -0.387092,0.3363 -0.387092,0.8115 0,0.468 0.341552,0.7385 0.341552,0.2706 1.38898,0.4826 1.555962,0.3217 2.314967,0.8774 0.759005,0.5484 0.759005,1.4769 0,1.0529 -0.888036,1.7036 -0.880446,0.6507 -2.307376,0.6507 -1.571142,0 -2.474358,-0.7677 -0.903217,-0.7677 -0.857677,-1.7913 l 0.01518,-0.044 h 1.42693 q 0.03795,0.7678 0.592025,1.126 0.554075,0.351 1.2979,0.351 0.796956,0 1.244769,-0.3071 0.455402,-0.3144 0.455402,-0.8189 z" />
                    <path id="path1913"
                        style="font-style:normal;font-variant:normal;font-weight:normal;font-stretch:normal;font-size:15.2566px;line-height:110%;font-family:Roboto;-inkscape-font-specification:'Roboto, Normal';font-variant-ligatures:normal;font-variant-caps:normal;font-variant-numeric:normal;font-variant-east-asian:normal;text-align:start;letter-spacing:0px;word-spacing:0px;writing-mode:lr-tb;text-anchor:start;fill:#000000;fill-opacity:1;stroke:none;stroke-width:0.975945"
                        d="m 92.625935,1034.1365 v 1.9083 h 1.555962 v 1.0674 h -1.555962 v 4.8037 q 0,0.5557 0.235292,0.7824 0.242882,0.2267 0.637565,0.2267 0.12903,0 0.280832,-0.029 0.15939,-0.029 0.280831,-0.073 l 0.197342,0.9871 q -0.166981,0.1316 -0.493353,0.212 -0.318783,0.087 -0.645155,0.087 -0.910807,0 -1.449701,-0.5264 -0.538894,-0.5338 -0.538894,-1.6671 v -4.8037 h -1.305489 v -1.0674 h 1.305489 v -1.9083 z" />
                    <path id="path1915"
                        style="font-style:normal;font-variant:normal;font-weight:normal;font-stretch:normal;font-size:15.2566px;line-height:110%;font-family:Roboto;-inkscape-font-specification:'Roboto, Normal';font-variant-ligatures:normal;font-variant-caps:normal;font-variant-numeric:normal;font-variant-east-asian:normal;text-align:start;letter-spacing:0px;word-spacing:0px;writing-mode:lr-tb;text-anchor:start;fill:#000000;fill-opacity:1;stroke:none;stroke-width:0.975945"
                        d="m 99.912391,1037.317 -0.766595,-0.044 q -0.592024,0 -1.001888,0.2705 -0.402273,0.2706 -0.622384,0.7605 v 5.6518 h -1.495241 v -7.9111 h 1.335849 l 0.144212,1.1552 q 0.349143,-0.6141 0.857676,-0.9578 0.516124,-0.3437 1.184049,-0.3437 0.166981,0 0.318782,0.029 0.151799,0.022 0.250469,0.051 z" />
                    <path id="path1917"
                        style="font-style:normal;font-variant:normal;font-weight:normal;font-stretch:normal;font-size:15.2566px;line-height:110%;font-family:Roboto;-inkscape-font-specification:'Roboto, Normal';font-variant-ligatures:normal;font-variant-caps:normal;font-variant-numeric:normal;font-variant-east-asian:normal;text-align:start;letter-spacing:0px;word-spacing:0px;writing-mode:lr-tb;text-anchor:start;fill:#000000;fill-opacity:1;stroke:none;stroke-width:0.975945"
                        d="m 106.41707,1043.9559 q -0.0759,-0.3583 -0.12145,-0.6288 -0.0379,-0.2779 -0.0455,-0.5557 -0.41746,0.5703 -1.09297,0.9578 -0.66793,0.3802 -1.44211,0.3802 -1.28273,0 -1.95824,-0.6288 -0.66792,-0.6361 -0.66792,-1.7474 0,-1.1334 0.94876,-1.7695 0.95634,-0.6433 2.5882,-0.6433 h 1.62428 v -0.7824 q 0,-0.6946 -0.44022,-1.0968 -0.44024,-0.4093 -1.24477,-0.4093 -0.72107,0 -1.17647,0.3582 -0.44781,0.351 -0.44781,0.8481 h -1.42693 l -0.0152,-0.044 q -0.0456,-0.8627 0.8425,-1.5792 0.89562,-0.7166 2.30737,-0.7166 1.39657,0 2.24666,0.6874 0.85008,0.6799 0.85008,1.9668 v 3.8093 q 0,0.424 0.0455,0.8189 0.0455,0.3948 0.16698,0.775 z m -2.48195,-1.0529 q 0.81213,0 1.46488,-0.4021 0.65274,-0.4021 0.85009,-0.9212 v -1.2869 h -1.67741 q -0.90322,0 -1.4497,0.4387 -0.5389,0.4387 -0.5389,1.0309 0,0.5265 0.34156,0.8336 0.34155,0.307 1.00948,0.307 z" />
                    <path id="path1919"
                        style="font-style:normal;font-variant:normal;font-weight:normal;font-stretch:normal;font-size:15.2566px;line-height:110%;font-family:Roboto;-inkscape-font-specification:'Roboto, Normal';font-variant-ligatures:normal;font-variant-caps:normal;font-variant-numeric:normal;font-variant-east-asian:normal;text-align:start;letter-spacing:0px;word-spacing:0px;writing-mode:lr-tb;text-anchor:start;fill:#000000;fill-opacity:1;stroke:none;stroke-width:0.975945"
                        d="m 114.7054,1041.8575 q 0,-0.4753 -0.37949,-0.7823 -0.37192,-0.3071 -1.41935,-0.5339 -1.49523,-0.3143 -2.25425,-0.8481 -0.75141,-0.541 -0.75141,-1.4696 0,-0.9651 0.85009,-1.6451 0.85008,-0.68 2.21629,-0.68 1.43452,0 2.27702,0.7093 0.85008,0.7092 0.81214,1.7255 l -0.0152,0.044 h -1.42693 q 0,-0.5191 -0.45541,-0.9286 -0.44781,-0.4168 -1.19164,-0.4168 -0.79695,0 -1.18405,0.3364 -0.38708,0.3363 -0.38708,0.8115 0,0.468 0.34154,0.7385 0.34155,0.2706 1.38898,0.4826 1.55596,0.3217 2.31498,0.8774 0.759,0.5484 0.759,1.4769 0,1.0529 -0.88804,1.7036 -0.88045,0.6507 -2.30738,0.6507 -1.57114,0 -2.47436,-0.7677 -0.90321,-0.7677 -0.85767,-1.7913 l 0.0152,-0.044 h 1.42693 q 0.038,0.7678 0.59203,1.126 0.55407,0.351 1.29789,0.351 0.79696,0 1.24477,-0.3071 0.4554,-0.3144 0.4554,-0.8189 z" />
                    <path id="path1921"
                        style="font-style:normal;font-variant:normal;font-weight:normal;font-stretch:normal;font-size:15.2566px;line-height:110%;font-family:Roboto;-inkscape-font-specification:'Roboto, Normal';font-variant-ligatures:normal;font-variant-caps:normal;font-variant-numeric:normal;font-variant-east-asian:normal;text-align:start;letter-spacing:0px;word-spacing:0px;writing-mode:lr-tb;text-anchor:start;fill:#000000;fill-opacity:1;stroke:none;stroke-width:0.975945"
                        d="m 122.84194,1041.8575 q 0,-0.4753 -0.3795,-0.7823 -0.37191,-0.3071 -1.41934,-0.5339 -1.49524,-0.3143 -2.25425,-0.8481 -0.75141,-0.541 -0.75141,-1.4696 0,-0.9651 0.85008,-1.6451 0.85009,-0.68 2.2163,-0.68 1.43452,0 2.27701,0.7093 0.85009,0.7092 0.81214,1.7255 l -0.0152,0.044 h -1.42693 q 0,-0.5191 -0.4554,-0.9286 -0.44782,-0.4168 -1.19164,-0.4168 -0.79696,0 -1.18404,0.3364 -0.3871,0.3363 -0.3871,0.8115 0,0.468 0.34155,0.7385 0.34156,0.2706 1.38898,0.4826 1.55596,0.3217 2.31497,0.8774 0.759,0.5484 0.759,1.4769 0,1.0529 -0.88803,1.7036 -0.88045,0.6507 -2.30738,0.6507 -1.57114,0 -2.47435,-0.7677 -0.90323,-0.7677 -0.85769,-1.7913 l 0.0152,-0.044 h 1.42693 q 0.038,0.7678 0.59202,1.126 0.55407,0.351 1.2979,0.351 0.79696,0 1.24477,-0.3071 0.4554,-0.3144 0.4554,-0.8189 z" />
                    <path id="path1923"
                        style="font-style:normal;font-variant:normal;font-weight:normal;font-stretch:normal;font-size:15.2566px;line-height:110%;font-family:Roboto;-inkscape-font-specification:'Roboto, Normal';font-variant-ligatures:normal;font-variant-caps:normal;font-variant-numeric:normal;font-variant-east-asian:normal;text-align:start;letter-spacing:0px;word-spacing:0px;writing-mode:lr-tb;text-anchor:start;fill:#000000;fill-opacity:1;stroke:none;stroke-width:0.975945"
                        d="m 129.61227,1044.1094 q -1.71535,0 -2.73242,-1.0967 -1.00948,-1.1041 -1.00948,-2.8588 v -0.3218 q 0,-1.6889 1.03985,-2.8076 1.04742,-1.126 2.47435,-1.126 1.66222,0 2.51231,0.9651 0.85008,0.9652 0.85008,2.5738 v 0.8993 h -5.32822 l -0.0227,0.036 q 0.0227,1.1406 0.59961,1.8791 0.57685,0.7312 1.61668,0.7312 0.759,0 1.32827,-0.2048 0.57684,-0.212 0.99429,-0.5776 l 0.58444,0.9359 q -0.44023,0.4167 -1.16128,0.6946 -0.72106,0.2778 -1.74572,0.2778 z m -0.2277,-7.0775 q -0.75141,0 -1.28272,0.6141 -0.53131,0.6068 -0.65275,1.5281 l 0.0152,0.036 h 3.78744 v -0.1902 q 0,-0.8481 -0.47059,-1.4184 -0.47058,-0.5702 -1.39657,-0.5702 z" />
                    <path id="path1925"
                        style="font-style:normal;font-variant:normal;font-weight:normal;font-stretch:normal;font-size:15.2566px;line-height:110%;font-family:Roboto;-inkscape-font-specification:'Roboto, Normal';font-variant-ligatures:normal;font-variant-caps:normal;font-variant-numeric:normal;font-variant-east-asian:normal;text-align:start;letter-spacing:0px;word-spacing:0px;writing-mode:lr-tb;text-anchor:start;fill:#000000;fill-opacity:1;stroke:none;stroke-width:0.975945"
                        d="m 138.31806,1037.317 -0.76659,-0.044 q -0.59202,0 -1.00188,0.2705 -0.40228,0.2706 -0.62239,0.7605 v 5.6518 h -1.49525 v -7.9111 h 1.33586 l 0.14421,1.1552 q 0.34915,-0.6141 0.85767,-0.9578 0.51613,-0.3437 1.18406,-0.3437 0.16698,0 0.31878,0.029 0.1518,0.022 0.25047,0.051 z" />
                </g>
                <path inkscape:connector-curvature="0" id="path3032"
                    d="m 3.61962,1050.2168 143.68586,0"
                    style="fill:#80b3ff;fill-opacity:1;stroke:#80b3ff;stroke-width:0.89691894;stroke-linecap:butt;stroke-linejoin:miter;stroke-miterlimit:4;stroke-opacity:0.94509804;stroke-dasharray:none" />
                <circle r="8.6982698" cy="1019.8604" cx="21.993103" id="path2991"
                    style="fill:#ffffff;fill-opacity:1;stroke:#000000;stroke-width:0.897886;stroke-linejoin:round;stroke-miterlimit:4;stroke-dasharray:none;stroke-opacity:1" />
                <circle r="2.5253041" cy="1017.8162" cx="18.425613" id="path2991-1"
                    style="fill:#a799ff;fill-opacity:1;stroke:#000000;stroke-width:0.897886;stroke-linejoin:round;stroke-miterlimit:4;stroke-dasharray:none;stroke-opacity:0.945098" />
                <circle r="2.2046304" cy="1019.4996" cx="25.801081" id="path2991-1-7"
                    style="fill:#80b3ff;fill-opacity:1;stroke:#000000;stroke-width:0.897886;stroke-linejoin:round;stroke-miterlimit:4;stroke-dasharray:none;stroke-opacity:0.945098" />
                <rect ry="3.3970299" rx="3.3970299" y="1028.7993" x="13.455098" height="16.033674"
                    width="16.033674" id="rect3031"
                    style="fill:#ffffff;fill-opacity:1;stroke:#000000;stroke-width:0.897886;stroke-linejoin:round;stroke-miterlimit:4;stroke-dasharray:none;stroke-opacity:1" />
                <path sodipodi:nodetypes="cccc" inkscape:connector-curvature="0" id="path3037"
                    d="m 26.763098,1012.5249 3.649623,-1.0273 -2.051499,-3.5147 3.532668,-0.5887"
                    style="fill:none;stroke:#000000;stroke-width:0.897886;stroke-linecap:butt;stroke-linejoin:miter;stroke-miterlimit:4;stroke-dasharray:none;stroke-opacity:1" />
                <circle r="1.042189" cy="1006.6327" cx="32.49514" id="path2991-1-7-9"
                    style="fill:#87aade;fill-opacity:1;stroke:#000000;stroke-width:0.897886;stroke-linejoin:round;stroke-miterlimit:4;stroke-dasharray:none;stroke-opacity:1" />
                <ellipse ry="0.52593917" rx="0.48623744" cy="1041.3915" cx="22.782911"
                    id="path2991-1-7-8"
                    style="fill:#000000;fill-opacity:1;stroke:#000000;stroke-width:0.224471;stroke-linejoin:round;stroke-miterlimit:4;stroke-dasharray:none;stroke-opacity:1" />
                <ellipse ry="0.52593917" rx="0.48623744" cy="1041.3915" cx="25.639563"
                    id="path2991-1-7-8-2"
                    style="fill:#000000;fill-opacity:1;stroke:#000000;stroke-width:0.224471;stroke-linejoin:round;stroke-miterlimit:4;stroke-dasharray:none;stroke-opacity:1" />
                <path
                    d="m 24.250473,1039.5287 c 1.805784,0 3.259537,0.2514 3.259537,0.5638 v 2.3303 c 0,0.3124 -1.453753,0.5638 -3.259537,0.5638 -1.805783,0 -3.259537,-0.2514 -3.259537,-0.5638 v -2.3303 c 0,-0.3124 1.453754,-0.5638 3.259537,-0.5638 z"
                    style="fill:#000000;fill-opacity:0;stroke:#000000;stroke-width:0.897886;stroke-linejoin:round;stroke-miterlimit:4;stroke-dasharray:none;stroke-opacity:1"
                    id="rect3802" />
            </g>
        </g>
    </g>
</svg>
