<?xml version="1.0" encoding="UTF-8" standalone="no"?>
<svg xmlns:dc="http://purl.org/dc/elements/1.1/" xmlns:cc="http://creativecommons.org/ns#"
    xmlns:rdf="http://www.w3.org/1999/02/22-rdf-syntax-ns#" xmlns="http://www.w3.org/2000/svg"
    xmlns:sodipodi="http://sodipodi.sourceforge.net/DTD/sodipodi-0.dtd"
    xmlns:inkscape="http://www.inkscape.org/namespaces/inkscape" width="256" height="256"
    viewBox="0 0 67.73248 67.73248" version="1.1" id="svg8"
    inkscape:version="1.0beta2 (2b71d25, 2019-12-03)" sodipodi:docname="welcome_track_use.svg">
    <defs id="defs2" />
    <sodipodi:namedview id="base" pagecolor="#00acc1" bordercolor="#666666" borderopacity="1.0"
        inkscape:pageopacity="0" inkscape:pageshadow="2" inkscape:zoom="1.3679546"
        inkscape:cx="-36.669754" inkscape:cy="195.01616" inkscape:document-units="px"
        inkscape:current-layer="layer1" inkscape:document-rotation="0" showgrid="false" units="px"
        inkscape:window-width="1280" inkscape:window-height="755" inkscape:window-x="0"
        inkscape:window-y="23" inkscape:window-maximized="0" />
    <metadata id="metadata5">
        <rdf:RDF>
            <cc:Work rdf:about="">
                <dc:format>image/svg+xml</dc:format>
                <dc:type rdf:resource="http://purl.org/dc/dcmitype/StillImage" />
                <dc:title></dc:title>
            </cc:Work>
        </rdf:RDF>
    </metadata>
    <g inkscape:label="Layer 1" inkscape:groupmode="layer" id="layer1">
        <g id="g1129" transform="matrix(0.95030623,0,0,0.95030357,-11.974841,-27.77917)">
            <path style="fill:#ffffff;stroke-width:0.994752" inkscape:connector-curvature="0"
                id="path141"
                d="m 22.520323,39.960722 c -1.094227,0 -1.989504,0.895277 -1.989504,1.989504 v 17.905538 c 0,1.094227 0.895277,1.989504 1.989504,1.989504 h 9.947521 c 1.094227,0 1.989504,-0.895277 1.989504,-1.989504 V 41.950226 c 0,-1.094227 -0.895277,-1.989504 -1.989504,-1.989504 z m 0,2.984256 h 9.947521 v 15.916033 h -9.947521 z" />
            <g style="fill:#1de9b6;fill-opacity:1" transform="translate(2.6458,32.127571)"
                id="g151">
                <path inkscape:connector-curvature="0" id="path143" transform="scale(0.26458)"
                    d="m 66.408203,92.78125 c -2.371524,0.05832 -4.525026,1.639221 -5.207031,4.044922 v 0.002 c -0.839346,2.960866 0.873133,6.027798 3.833984,6.867188 l 2.5625,0.72657 V 92.884766 C 67.198963,92.807838 66.800603,92.7716 66.408203,92.78125 Z"
                    style="fill:#1de9b6;fill-opacity:1;stroke-width:3.70787" />
                <path inkscape:connector-curvature="0" id="path145" transform="scale(0.26458)"
                    d="m 59.751953,75.478516 c -2.371519,0.05832 -4.525023,1.639208 -5.207031,4.044922 -0.839353,2.960851 0.873137,6.027789 3.833984,6.867187 l 9.21875,2.613281 V 77.443359 L 61.412109,75.689453 C 60.85695,75.532074 60.299227,75.465057 59.751953,75.478516 Z"
                    style="fill:#1de9b6;fill-opacity:1;stroke-width:3.70787" />
                <path inkscape:connector-curvature="0" id="path147" transform="scale(0.26458)"
                    d="m 60.228516,60.197266 c -2.371521,0.05832 -4.523074,1.641155 -5.205078,4.046875 -0.83935,2.960851 0.873129,6.027793 3.833984,6.867187 l 8.740234,2.478516 v -11.5625 l -5.707031,-1.617188 c -0.55516,-0.157378 -1.114835,-0.226349 -1.662109,-0.21289 z"
                    style="fill:#1de9b6;fill-opacity:1;stroke-width:3.70787" />
                <path inkscape:connector-curvature="0" id="path149" transform="scale(0.26458)"
                    d="m 120.22852,37.025391 c 4.4e-4,0.03354 0.006,0.06597 0.006,0.09961 v 67.675779 c 0,4.13571 -3.38382,7.51953 -7.51954,7.51953 H 95.462891 l 21.298829,6.03711 c 7.88374,2.2349 16.07956,-2.33892 18.31445,-10.22265 l 7.38086,-26.041019 c 1.09215,-3.852702 0.58995,-7.926702 -1.39844,-11.380859 l -17.7207,-31.154297 c -0.70462,-1.262497 -1.835,-2.124192 -3.10937,-2.533204 z"
                    style="fill:#1de9b6;fill-opacity:1;stroke-width:3.70787" />
            </g>
            <path id="path153"
                d="m 35.034731,50.785203 -2.45871,-7.111757 c -0.156284,-0.635719 0.121328,-1.291203 0.68391,-1.621162 0.707964,-0.411116 1.619396,-0.173122 2.018364,0.541723 l 4.688969,8.242704 c 0.526088,0.913901 0.659022,1.991664 0.37006,3.011012 l -1.953196,6.89001 c -0.591309,2.085878 -1.945461,-0.471666 -1.945461,-0.471666 z"
                inkscape:connector-curvature="0"
                style="fill:#1de9b6;fill-opacity:1;stroke-width:0.981029"
                sodipodi:nodetypes="ccccccscc" />
            <path style="fill:#ffffff;stroke-width:0.397729" inkscape:connector-curvature="0"
                d="m 25.107709,50.505266 h -1.590916 c -0.218751,0 -0.397729,0.178978 -0.397729,0.397729 0,0.218751 0.178978,0.397729 0.397729,0.397729 h 1.590916 c 0.218751,0 0.397729,-0.178978 0.397729,-0.397729 0,-0.218751 -0.178978,-0.397729 -0.397729,-0.397729 z m 0.98239,-1.567052 -0.286364,-0.286366 c -0.155116,-0.155113 -0.405684,-0.155113 -0.560798,0 -0.155114,0.155114 -0.155114,0.405684 0,0.560798 l 0.282388,0.282388 c 0.155114,0.155114 0.405682,0.155114 0.560796,0 0.155116,-0.151138 0.155116,-0.405684 0.0039,-0.55682 z m 1.403984,-2.410239 c -0.222728,0 -0.397729,0.178978 -0.397729,0.397729 v 1.590917 c 0,0.218751 0.178978,0.397729 0.397729,0.397729 0.218751,0 0.397729,-0.178978 0.397729,-0.397729 v -1.590917 c 0,-0.218751 -0.178978,-0.397729 -0.397729,-0.397729 z m 2.251145,2.127852 c -0.155114,-0.155114 -0.405682,-0.155114 -0.560796,0 l -0.282388,0.282387 c -0.155114,0.155114 -0.155114,0.405682 0,0.560798 0.155114,0.155114 0.405682,0.155114 0.560798,0 l 0.282386,-0.282387 c 0.151138,-0.155114 0.151138,-0.409662 0,-0.560798 z m -0.2625,2.247169 c 0,0.222727 0.178978,0.397728 0.397729,0.397728 h 1.590917 c 0.218751,0 0.397729,-0.178978 0.397729,-0.397728 0,-0.218751 -0.178978,-0.397729 -0.397729,-0.397729 h -1.590917 c -0.218751,0 -0.397729,0.178978 -0.397729,0.397729 z m -1.988645,-1.193188 c -0.66023,0 -1.193187,0.532956 -1.193187,1.193188 0,0.66023 0.532957,1.193187 1.193187,1.193187 0.660229,0 1.193187,-0.532957 1.193187,-1.193187 0,-0.660232 -0.532958,-1.193188 -1.193187,-1.193188 z m 1.403983,3.157968 0.282388,0.282388 c 0.155114,0.155114 0.405683,0.155114 0.560798,0 0.155114,-0.155114 0.155114,-0.405684 0,-0.560799 l -0.282388,-0.282387 c -0.155114,-0.155114 -0.405684,-0.155114 -0.560798,0 -0.151136,0.155115 -0.151136,0.409661 0,0.560798 z m -3.655129,0.282388 c 0.155114,0.155114 0.405682,0.155114 0.560798,0 l 0.282386,-0.282388 c 0.155116,-0.155114 0.155116,-0.405683 0,-0.560798 -0.155114,-0.155113 -0.405682,-0.155113 -0.560796,0 l -0.282388,0.282387 c -0.151138,0.155116 -0.151138,0.409662 0,0.560799 z m 2.251146,2.12785 c 0.222727,0 0.397729,-0.178978 0.397729,-0.397729 v -1.590916 c 0,-0.21875 -0.178978,-0.397729 -0.397729,-0.397729 -0.218751,0 -0.397729,0.178979 -0.397729,0.397729 v 1.590916 c 0,0.218751 0.178978,0.397729 0.397729,0.397729 z"
                id="path1019" />
        </g>
        <g id="g1119" transform="matrix(0.95030357,0,0,0.95030357,-2.0546557,11.486082)">
            <path
                d="m 53.550059,26.675415 c -1.094227,0 -1.989504,0.895277 -1.989504,1.989504 v 17.905538 c 0,1.094227 0.895277,1.989504 1.989504,1.989504 h 9.947521 c 1.094227,0 1.989504,-0.895277 1.989504,-1.989504 V 28.664919 c 0,-1.094227 -0.895277,-1.989504 -1.989504,-1.989504 z m 0,2.984256 h 9.947521 v 15.916033 h -9.947521 z"
                id="path46" inkscape:connector-curvature="0"
                style="fill:#ffffff;stroke-width:0.994752" />
            <path id="path1107"
                d="m 55.689034,40.887141 c 0.555619,0.321276 1.20195,0.510262 1.889857,0.510262 2.086403,0 3.779714,-1.693313 3.779714,-3.779715 0,-2.086403 -1.693311,-3.779714 -3.779714,-3.779714 -0.687907,0 -1.334238,0.188986 -1.889857,0.510261 1.130136,0.653889 1.889857,1.870959 1.889857,3.269453 0,1.398494 -0.759721,2.615561 -1.889857,3.269453 z m 2.6458,-3.269453 c 0,-1.115015 -0.415769,-2.180895 -1.137693,-2.997314 0.124729,-0.0189 0.25324,-0.02646 0.38175,-0.02646 1.666854,0 3.023772,1.356918 3.023772,3.023771 0,1.666854 -1.356918,3.023772 -3.023772,3.023772 -0.128514,0 -0.25702,-0.0076 -0.38175,-0.02646 0.721924,-0.816418 1.137693,-1.882298 1.137693,-2.997312 z"
                inkscape:connector-curvature="0"
                style="fill:#1deab6;fill-opacity:0.991903;stroke-width:0.377971" />
        </g>
        <rect style="fill:#ffffff;fill-opacity:0.991903;stroke-width:0.258231" id="rect1131"
            width="62.857826" height="1.0057253" x="-31.486217" y="47.452576"
            transform="rotate(-45)" />
        <g transform="matrix(0.95031098,0,0,0.95030357,23.465604,-20.730283)" id="g56">
            <path inkscape:connector-curvature="0" transform="scale(0.26458)"
                d="m 32.679688,112.47656 v 5.79688 h 17.394531 v -5.79688 z m 8.697265,8.69727 c -14.408492,0 -26.091797,11.6833 -26.091797,26.09179 0,14.4085 11.654312,26.0918 26.091797,26.0918 14.437478,0 26.091797,-11.6833 26.091797,-26.0918 0,-6.14608 -2.145055,-11.79907 -5.710938,-16.26367 L 65.875,126.88477 c -1.246617,-1.47854 -2.609347,-2.87029 -4.087891,-4.08789 l -4.117187,4.11718 c -4.493594,-3.59487 -10.1469,-5.74023 -16.292969,-5.74023 z m 0,5.79687 c 11.219484,0 20.294922,9.07544 20.294922,20.29492 0,11.2195 -9.075438,20.29297 -20.294922,20.29297 -11.219492,0 -20.292969,-9.07346 -20.292969,-20.29297 0,-11.21949 9.073477,-20.29492 20.292969,-20.29492 z"
                style="fill:#ffffff;stroke-width:2.89909" id="path1166" />
            <path style="fill:#1de9b6;fill-opacity:1;stroke-width:0.419818"
                inkscape:connector-curvature="0"
                d="m 9.2662158,36.102657 v 5.877456 l 4.6180022,-2.938729 z" id="path1172" />
        </g>
        <g transform="matrix(0.95030357,0,0,0.95030357,2.6327527,0.35980343)" id="g52">
            <path inkscape:connector-curvature="0" id="path1199"
                style="fill:#ffffff;stroke-width:0.767041"
                d="m 30.568735,46.956748 v 1.533739 h 4.602245 v -1.533739 z m 2.301122,2.301124 c -3.812199,0 -6.903368,3.091167 -6.903368,6.903366 0,3.812201 3.083498,6.903368 6.903368,6.903368 3.819868,0 6.903368,-3.091167 6.903368,-6.903368 0,-1.62613 -0.567539,-3.121798 -1.511,-4.303042 L 39.35155,50.768872 C 39.02172,50.37768 38.661169,50.009451 38.269976,49.687299 l -1.089325,1.089323 c -1.188915,-0.951131 -2.684667,-1.51875 -4.310794,-1.51875 z m 0,1.533736 c 2.968451,0 5.369631,2.40118 5.369631,5.36963 0,2.968455 -2.40118,5.369114 -5.369631,5.369114 -2.968453,0 -5.369114,-2.400656 -5.369114,-5.369114 0,-2.968453 2.400661,-5.36963 5.369114,-5.36963 z" />
            <path style="fill:#1de9b6;fill-opacity:1;stroke-width:0.40182"
                inkscape:connector-curvature="0"
                d="m 30.445598,59.051736 h 1.607278 v -5.625474 h -1.607278 z m 3.214557,-5.625474 v 5.625474 h 1.607279 v -5.625474 z"
                id="path1201" />
        </g>
    </g>
</svg>
